Coordinates
version=1
nRows=11
nColumns=36
inDegrees=yes

Units are S.I. units (second, meters, Newtons, ...)
If the header above contains a line with 'inDegrees', this indicates whether rotational values are in degrees (yes) or radians (no).

endheader
time	pelvis_tilt	pelvis_list	pelvis_rotation	pelvis_tx	pelvis_ty	pelvis_tz	hip_flexion_r	hip_adduction_r	hip_rotation_r	knee_angle_r	knee_angle_r_beta	ankle_angle_r	subtalar_angle_r	mtp_angle_r	hip_flexion_l	hip_adduction_l	hip_rotation_l	knee_angle_l	knee_angle_l_beta	ankle_angle_l	subtalar_angle_l	mtp_angle_l	lumbar_extension	lumbar_bending	lumbar_rotation	arm_flex_r	arm_add_r	arm_rot_r	elbow_flex_r	pro_sup_r	arm_flex_l	arm_add_l	arm_rot_l	elbow_flex_l	pro_sup_l
      6.59000000	    -34.63878671	     -5.30103045	      0.47779466	     -0.30300376	      0.65804146	     -0.56971981	     94.35131444	     -6.90403768	     -8.78566416	     91.16756046	      1.59117410	     35.15345105	     -2.47445718	     -7.49999987	     97.11068228	    -35.07463058	     10.52580801	     73.82848517	      1.28855015	     22.71186591	     13.43399615	     -7.49999987	    -33.59041079	     -2.12722526	      4.90367535	    113.52438364	    -15.95400097	     38.40048790	    118.81020055	    108.77172135	    119.69977610	    -20.50492471	     41.72134628	    116.13735281	    109.16873247
      6.60000000	    -34.43577403	     -5.34128398	      0.53667340	     -0.30199373	      0.66187297	     -0.57129881	     93.65514218	     -6.90542429	     -8.68062417	     90.55064682	      1.58040693	     34.98788501	     -2.43937800	     -7.49999987	     96.32221221	    -34.89583289	     10.27172402	     73.36653618	      1.28048762	     22.65509008	     13.35750146	     -7.49999987	    -33.34520159	     -1.96419130	      4.92093529	    112.93692875	    -16.09127477	     38.42075058	    119.04509558	    108.79994624	    119.11708722	    -20.66189358	     41.71406215	    116.25342074	    109.17571914
      6.61000000	    -34.29031829	     -5.23696534	      0.56228866	     -0.30088021	      0.66580618	     -0.57266024	     93.07404715	     -6.92086884	     -8.47087288	     89.99966392	      1.57079046	     34.60509644	     -2.47115954	     -7.49999987	     95.40346953	    -34.77686433	      9.72483933	     72.79460442	      1.27050552	     22.48703508	     12.92463046	     -7.49999987	    -32.98476998	     -1.98663133	      4.92368741	    111.99145631	    -16.16945174	     38.14432048	    119.42649377	    108.86704402	    118.23627328	    -20.64908817	     41.29819066	    116.45685536	    109.17475700
      6.62000000	    -34.14299446	     -5.33570923	      0.58473389	     -0.29992994	      0.66979407	     -0.57416136	     92.37679618	     -6.90269392	     -8.45440535	     89.27377136	      1.55812125	     34.46978202	     -2.39035983	     -7.49999987	     94.75920641	    -34.65510453	      9.49745897	     72.34984477	      1.26274300	     22.41441104	     12.91146741	     -7.49999987	    -32.66752844	     -1.82160845	      4.94597646	    111.33508853	    -16.40781976	     38.24495646	    119.61331307	    108.89134124	    117.79102923	    -20.86579223	     41.40492660	    116.53493818	    109.19650100
      6.63000000	    -33.99002570	     -5.27899063	      0.61246316	     -0.29862325	      0.67403522	     -0.57577064	     91.69594101	     -6.95274797	     -8.33745045	     88.63634766	      1.54699610	     34.17446118	     -2.35619704	     -7.49999987	     93.83353902	    -34.56674582	      8.92235362	     71.73843992	      1.25207198	     22.21527260	     12.64058937	     -7.49999987	    -32.23351487	     -1.84067715	      4.97270329	    110.06227569	    -16.69739277	     37.93075527	    120.16433001	    108.91428882	    116.74683582	    -20.69022096	     41.11601416	    116.76573973	    109.22962356
      6.64000000	    -33.75857605	     -5.31013931	      0.68062286	     -0.29746242	      0.67864027	     -0.57765512	     90.84547873	     -7.04452636	     -8.35285141	     87.85177652	      1.53330275	     34.02387801	     -2.30128411	     -7.49999987	     92.89456995	    -34.38541074	      8.52520772	     71.12741495	      1.24140758	     22.10736373	     12.57966708	     -7.49999987	    -31.94925829	     -1.67455081	      4.90512457	    109.13632081	    -17.00025617	     38.06762339	    120.40934636	    108.93233662	    115.98194287	    -20.82610004	     41.13375030	    116.95198690	    109.26588821
      6.65000000	    -33.64243489	     -5.13250971	      0.79395784	     -0.29640715	      0.68319906	     -0.57957019	     90.18437155	     -7.21494377	     -8.13672068	     87.08418674	      1.51990578	     33.77182267	     -2.32400514	     -7.49999987	     91.87629572	    -34.09846972	      7.81320272	     70.50829180	      1.23060184	     21.89888509	     12.30706020	     -7.49999987	    -31.50553135	     -1.68995728	      4.73473222	    107.90225242	    -17.27347929	     37.82064086	    120.79064742	    108.93474061	    114.87941026	    -20.90873827	     40.71602896	    117.23956755	    109.31072133
      6.66000000	    -33.46722764	     -5.20600131	      0.86763193	     -0.29540955	      0.68785858	     -0.58107573	     89.37412428	     -7.22727079	     -8.15949273	     86.21300072	      1.50470072	     33.59064716	     -2.26520978	     -7.49999987	     91.04189255	    -33.94357201	      7.46241854	     69.82343662	      1.21864886	     21.80811332	     12.22217655	     -7.49999987	    -31.12802934	     -1.51603361	      4.65138737	    106.87411445	    -17.57468371	     37.92503786	    120.97891995	    108.95235772	    114.12967816	    -21.21917691	     40.78129084	    117.36039771	    109.33640063
      6.67000000	    -33.26169531	     -5.03097486	      0.96026074	     -0.29418520	      0.69265568	     -0.58234981	     88.63536597	     -7.29358993	     -7.94663963	     85.47074211	      1.49174586	     33.15229503	     -2.41409909	     -7.49999987	     89.89015307	    -33.79157700	      6.67639462	     69.01529577	      1.20454415	     21.49906249	     11.58449264	     -7.49999987	    -30.73327499	     -1.47867006	      4.41933026	    105.40731997	    -17.37004888	     37.51172939	    121.17596642	    108.93961277	    112.71417372	    -21.54214342	     40.03222108	    117.87490964	    109.32312119
      6.68000000	    -32.94236407	     -4.97011912	      1.12077901	     -0.29316774	      0.69775350	     -0.58395367	     87.70266014	     -7.42272909	     -7.87509048	     84.62745270	      1.47702769	     32.78120232	     -2.57540987	     -7.49999987	     88.73840558	    -33.51748585	      6.10915747	     68.22349278	      1.19072458	     21.09247508	     11.00932195	     -7.49999987	    -30.55573834	     -1.15949483	      4.10742619	    104.42736869	    -17.05986133	     37.61023990	    121.04643919	    108.91293028	    111.50353356	    -22.16692466	     39.38006023	    118.41990105	    109.28304556
      6.69000000	    -32.67479915	     -5.05222078	      1.28991737	     -0.29212819	      0.70294503	     -0.58589763	     86.70591972	     -7.55871414	     -7.94236342	     83.64364570	      1.45985702	     32.60718050	     -2.51095824	     -7.49999987	     87.76817481	    -33.21252534	      5.76978898	     67.48243947	      1.17779076	     20.92190194	     10.99896903	     -7.49999987	    -30.25149397	     -0.90288742	      3.94894575	    103.29103930	    -17.36848486	     37.72085636	    121.24289064	    108.91923344	    110.56213272	    -22.40507863	     39.43790368	    118.59992077	    109.29383808
